<?xml version="1.0" encoding="UTF-8"?>
<!-- Generator: Adobe Illustrator 20.1.0, SVG Export Plug-In . SVG Version: 6.00 Build 0)  -->
<svg version="1.1" baseProfile="basic" id="Layer_1" xmlns="http://www.w3.org/2000/svg" xmlns:xlink="http://www.w3.org/1999/xlink" x="0px" y="0px" viewBox="0 0 80 80" xml:space="preserve">
<g>
	<path style="fill:#C70000;" d="M55.616,30.583c0,13.89-11.144,25.034-25.034,25.034S5.47,44.473,5.47,30.583C5.47,16.849,16.693,5.47,30.583,5.47   S55.616,16.849,55.616,30.583z M11.827,30.583c0,10.359,8.318,18.834,18.756,18.834c10.359,0,18.834-8.476,18.834-18.834   c0-10.438-8.476-18.756-18.834-18.756C20.145,11.827,11.827,20.145,11.827,30.583z M74.53,68.173l-6.356,6.356L49.417,55.774   v-3.218l3.139-3.139h3.218L74.53,68.173z"/>
</g>
</svg>